<?xml version="1.0" encoding="utf-8"?>
<!-- Generator: Adobe Illustrator 14.0.0, SVG Export Plug-In . SVG Version: 6.00 Build 43363)  -->
<!DOCTYPE svg PUBLIC "-//W3C//DTD SVG 1.1//EN" "http://www.w3.org/Graphics/SVG/1.1/DTD/svg11.dtd">
<svg version="1.1" id="Layer_1" xmlns="http://www.w3.org/2000/svg" xmlns:xlink="http://www.w3.org/1999/xlink" x="0px" y="0px"
	 width="16px" height="10px" viewBox="0 0 16 10" enable-background="new 0 0 16 10" xml:space="preserve">
<g>
	<path fill="#333333" d="M14.65,10c-0.135,0-0.25-0.062-0.346-0.185L7.985,3.077L1.695,9.815C1.58,9.938,1.455,10,1.321,10
		c-0.134,0-0.259-0.062-0.374-0.185L0.144,8.953C0.047,8.852,0,8.729,0,8.585s0.047-0.277,0.144-0.4l7.468-8
		C7.727,0.062,7.851,0,7.985,0c0.134,0,0.259,0.062,0.374,0.185l7.469,8C15.942,8.287,16,8.42,16,8.585
		c0,0.163-0.058,0.286-0.172,0.368l-0.805,0.862C14.928,9.938,14.803,10,14.65,10z"/>
</g>
</svg>
