<?xml version="1.0" encoding="utf-8"?>
<!-- Generator: Adobe Illustrator 18.0.0, SVG Export Plug-In . SVG Version: 6.00 Build 0)  -->
<!DOCTYPE svg PUBLIC "-//W3C//DTD SVG 1.1//EN" "http://www.w3.org/Graphics/SVG/1.1/DTD/svg11.dtd">
<svg version="1.1" id="Layer_1" xmlns="http://www.w3.org/2000/svg" xmlns:xlink="http://www.w3.org/1999/xlink" x="0px" y="0px"
	 viewBox="0 0 16 10" enable-background="new 0 0 16 10" xml:space="preserve">
<g>
	<path fill="#757C80" d="M15,0.2L15.8,1C15.9,1.1,16,1.3,16,1.4c0,0.2-0.1,0.3-0.2,0.4l-7.5,8C8.2,9.9,8.1,10,8,10S7.7,9.9,7.6,9.8
		l-7.5-8C0,1.7,0,1.6,0,1.4S0,1.1,0.1,1l0.8-0.9C1.1,0.1,1.2,0,1.3,0s0.3,0.1,0.4,0.2L8,6.9l6.3-6.7C14.4,0.1,14.5,0,14.6,0
		C14.8,0,14.9,0.1,15,0.2z"/>
</g>
</svg>
