<?xml version="1.0" encoding="utf-8"?>
<!-- Generator: Adobe Illustrator 14.0.0, SVG Export Plug-In . SVG Version: 6.00 Build 43363)  -->
<!DOCTYPE svg PUBLIC "-//W3C//DTD SVG 1.1//EN" "http://www.w3.org/Graphics/SVG/1.1/DTD/svg11.dtd">
<?xml-stylesheet type="text/css" href="styles.css"?>
<svg version="1.1" id="Layer_1" xmlns="http://www.w3.org/2000/svg" xmlns:xlink="http://www.w3.org/1999/xlink" x="0px" y="0px"
	 width="91px" height="100px" viewBox="0 0 91 100" enable-background="new 0 0 91 100" xml:space="preserve">
<g>
	<path class="svg-faceless" d="M90.972,83.099c0,5.207-1.583,9.323-4.747,12.354C83.06,98.482,78.892,100,73.726,100H17.247
		c-5.171,0-9.339-1.518-12.499-4.547C1.583,92.422,0,88.306,0,83.099c0-2.333,0.076-4.586,0.231-6.758
		c0.156-2.176,0.462-4.547,0.928-7.113c0.461-2.561,1.041-4.894,1.733-6.99c0.697-2.096,1.62-4.235,2.779-6.412
		c1.159-2.172,2.468-3.921,3.938-5.245c1.464-1.318,3.315-2.485,5.552-3.495c2.237-1.01,4.629-1.437,7.177-1.28
		c0.387,0,1.314,0.465,2.779,1.399c1.465,0.929,3.047,1.978,4.747,3.144c1.695,1.167,4.008,2.214,6.941,3.149
		c2.934,0.929,5.826,1.399,8.68,1.399s5.712-0.47,8.566-1.399c2.854-0.935,5.208-1.982,7.06-3.149
		c1.851-1.167,3.433-2.215,4.747-3.144c1.309-0.934,2.237-1.399,2.778-1.399c2.619,0,5.011,0.427,7.172,1.28s4.013,2.02,5.557,3.495
		c1.54,1.479,2.854,3.225,3.937,5.245c1.078,2.021,2.001,4.159,2.774,6.412c0.772,2.252,1.352,4.585,1.737,6.99
		c0.387,2.409,0.693,4.78,0.928,7.113C90.972,78.67,91.047,80.922,90.972,83.099z M70.255,25.06c0,6.838-2.43,12.704-7.295,17.598
		c-4.86,4.894-10.686,7.341-17.477,7.341c-6.791,0-12.654-2.447-17.59-7.341c-4.94-4.894-7.333-10.76-7.177-17.598
		c0.156-6.833,2.548-12.742,7.177-17.712c4.629-4.975,10.493-7.422,17.59-7.346c7.102,0.081,12.922,2.527,17.477,7.346
		C67.514,12.166,69.945,18.069,70.255,25.06z"/>
</g>
</svg>
