<?xml version="1.0" encoding="utf-8"?>
<!-- Generator: Adobe Illustrator 14.0.0, SVG Export Plug-In . SVG Version: 6.00 Build 43363)  -->
<!DOCTYPE svg PUBLIC "-//W3C//DTD SVG 1.1//EN" "http://www.w3.org/Graphics/SVG/1.1/DTD/svg11.dtd">
<?xml-stylesheet type="text/css" href="styles.css"?>
<svg version="1.1" id="Layer_1" xmlns="http://www.w3.org/2000/svg" xmlns:xlink="http://www.w3.org/1999/xlink" x="0px" y="0px"
	 width="24px" height="28px" viewBox="0 0 24 28" enable-background="new 0 0 24 28" xml:space="preserve">
<g>
	<path class="svg-idea" d="M4.116,12.582c0-2.24,0.788-4.144,2.366-5.709c1.577-1.567,3.474-2.357,5.692-2.374
		c2.217-0.015,4.114,0.776,5.692,2.374c1.577,1.598,2.365,3.5,2.365,5.709c0,0.845-0.233,1.793-0.702,2.842
		c-0.469,1.049-1.023,2.146-1.663,3.29c-0.641,1.143-1.077,2.052-1.312,2.726c-0.234,0.611-0.477,1.347-0.727,2.208l-0.562,1.926
		c-0.125,0.422-0.335,0.837-0.632,1.246c-0.297,0.406-0.625,0.712-0.985,0.916s-0.851,0.29-1.475,0.258
		c-0.625-0.031-1.125-0.117-1.5-0.258C10.3,27.595,9.979,27.29,9.715,26.82c-0.266-0.47-0.469-0.885-0.609-1.246
		c-0.141-0.36-0.336-1.003-0.586-1.926c-0.25-0.925-0.5-1.661-0.749-2.208c-0.203-0.674-0.633-1.59-1.289-2.75
		c-0.656-1.159-1.218-2.248-1.686-3.266C4.327,14.406,4.101,13.459,4.116,12.582z M5.592,12.582c0,1.002,0.64,2.67,1.921,5.003
		c0.577,1.003,0.983,1.778,1.217,2.327h6.863c0.25-0.548,0.664-1.324,1.242-2.327c1.28-2.364,1.92-4.032,1.92-5.003
		c0-1.833-0.641-3.391-1.92-4.676c-1.281-1.284-2.834-1.926-4.662-1.926S8.793,6.623,7.513,7.906
		C6.232,9.191,5.592,10.75,5.592,12.582z M7.771,12.582c0-1.221,0.429-2.264,1.289-3.125c0.858-0.862,1.896-1.292,3.115-1.292
		c0.234,0,0.352,0.126,0.352,0.375c0,0.252-0.117,0.376-0.352,0.376c-1.015,0-1.881,0.353-2.6,1.058
		c-0.719,0.705-1.069,1.574-1.054,2.608c0,0.234-0.125,0.352-0.375,0.352C7.895,12.934,7.771,12.816,7.771,12.582z M9.339,21.393
		c0.172,0.516,0.32,0.987,0.445,1.409l4.99-0.634c0.031-0.188,0.109-0.446,0.234-0.775H9.339z M10.019,23.506
		c0.156,0.548,0.296,1.018,0.422,1.41l3.606-0.447c0.094-0.25,0.188-0.547,0.281-0.893c0.031-0.078,0.062-0.196,0.093-0.353
		c0.032-0.156,0.056-0.249,0.071-0.281L10.019,23.506z M10.698,25.598c0.187,0.407,0.382,0.665,0.585,0.775
		c0.203,0.108,0.499,0.164,0.89,0.164c0.453,0,0.788-0.079,1.007-0.235c0.218-0.157,0.429-0.509,0.632-1.057L10.698,25.598z"/>
	<path class="svg-idea" d="M1.091,6.62C1.017,6.794,1.028,6.982,1.129,7.182c0.098,0.2,0.235,0.351,0.41,0.449l1.903,0.786
		c0.249,0.101,0.474,0.125,0.672,0.076c0.199-0.051,0.312-0.174,0.336-0.375c0.098-0.174,0.098-0.35,0-0.524
		C4.35,7.42,4.213,7.282,4.04,7.182L2.136,6.321C2.037,6.271,1.913,6.247,1.764,6.247H1.539C1.316,6.345,1.166,6.47,1.091,6.62z
		 M0,11.761c0,0.206,0.06,0.385,0.174,0.542c0.116,0.158,0.281,0.263,0.5,0.316l2.156,0.145c0.229,0.007,0.422-0.049,0.579-0.165
		c0.156-0.117,0.255-0.259,0.297-0.429c-0.002-0.206-0.082-0.405-0.238-0.598c-0.062-0.066-0.19-0.125-0.381-0.172l-0.145-0.036
		l-2.157-0.145c-0.192-0.048-0.367-0.013-0.523,0.102C0.104,11.439,0.017,11.584,0,11.761z M5.22,2.323
		C5.19,2.526,5.261,2.719,5.43,2.903l1.332,1.63c0.117,0.163,0.291,0.271,0.521,0.322c0.231,0.051,0.413-0.006,0.545-0.17
		C7.97,4.595,8.042,4.45,8.047,4.248C8.05,4.047,7.993,3.853,7.873,3.662l-1.377-1.7C6.375,1.774,6.228,1.678,6.053,1.67
		L5.829,1.694C5.681,1.709,5.558,1.735,5.461,1.77C5.33,1.934,5.248,2.12,5.22,2.323z M11.378,2.959
		c0,0.173,0.061,0.349,0.187,0.524c0.123,0.174,0.298,0.261,0.523,0.261c0.223,0,0.396-0.087,0.522-0.261
		c0.123-0.175,0.187-0.351,0.187-0.524V0.824c0-0.249-0.064-0.449-0.187-0.598C12.483,0.075,12.323,0,12.124,0H12.05
		c-0.199,0-0.362,0.075-0.485,0.226c-0.125,0.149-0.187,0.349-0.187,0.598V2.959z M16.717,4.257c-0.013,0.2,0.054,0.341,0.198,0.424
		c0.138,0.159,0.322,0.208,0.552,0.148c0.228-0.059,0.396-0.172,0.507-0.342l1.269-1.681c0.276-0.434,0.25-0.811-0.079-1.132
		c-0.097-0.031-0.221-0.051-0.371-0.062L18.569,1.6c-0.173,0.015-0.318,0.118-0.43,0.31l-1.309,1.754
		C16.743,3.86,16.707,4.056,16.717,4.257z M20.343,11.231c0.061,0.164,0.173,0.293,0.343,0.394c0.167,0.096,0.366,0.131,0.593,0.1
		l2.127-0.378c0.186-0.069,0.34-0.191,0.463-0.369c0.119-0.177,0.157-0.363,0.112-0.558c-0.044-0.197-0.146-0.332-0.307-0.408
		c-0.159-0.073-0.335-0.089-0.532-0.043l-2.127,0.379l-0.211,0.077c-0.14,0.05-0.236,0.116-0.289,0.186
		C20.38,10.82,20.323,11.026,20.343,11.231z M20.015,7.584c0.069,0.194,0.192,0.306,0.37,0.339c0.179,0.033,0.398-0.013,0.662-0.142
		l1.818-0.968c0.188-0.117,0.31-0.281,0.364-0.487c0.055-0.207,0.049-0.394-0.017-0.563c-0.067-0.168-0.229-0.277-0.482-0.327
		l-0.223,0.022c-0.149,0.015-0.271,0.051-0.364,0.111l-1.811,1.042c-0.163,0.117-0.287,0.268-0.368,0.45
		C19.88,7.246,19.897,7.421,20.015,7.584z"/>
</g>
</svg>
