<?xml version="1.0" encoding="utf-8"?>
<!-- Generator: Adobe Illustrator 14.0.0, SVG Export Plug-In . SVG Version: 6.00 Build 43363)  -->
<!DOCTYPE svg PUBLIC "-//W3C//DTD SVG 1.1//EN" "http://www.w3.org/Graphics/SVG/1.1/DTD/svg11.dtd">
<?xml-stylesheet type="text/css" href="styles.css"?>
<svg version="1.1" id="Layer_1" xmlns="http://www.w3.org/2000/svg" xmlns:xlink="http://www.w3.org/1999/xlink" x="0px" y="0px"
	 width="32px" height="32px" viewBox="0 0 32 32" enable-background="new 0 0 32 32" xml:space="preserve">
<g>
	<path fill="#ffffff" class="svg-instagram" d="M31.999,4.104v23.793c0,1.119-0.4,2.076-1.196,2.871c-0.796,0.797-1.767,1.207-2.913,1.232H4.108
		c-1.12,0-2.091-0.411-2.913-1.232c-0.82-0.82-1.219-1.777-1.194-2.871V4.104c0-1.121,0.398-2.076,1.194-2.873
		C1.993,0.436,2.964,0.026,4.108,0h23.783c1.121,0,2.092,0.412,2.913,1.231C31.625,2.052,32.023,3.009,31.999,4.104z M28.377,27.04
		V13.538h-2.8c0.273,0.871,0.41,1.778,0.41,2.723c0,1.767-0.447,3.382-1.345,4.849c-0.896,1.467-2.104,2.636-3.621,3.505
		c-1.518,0.871-3.186,1.306-5.003,1.306c-2.738,0-5.077-0.945-7.019-2.834c-1.941-1.89-2.912-4.164-2.912-6.826
		c0-0.944,0.136-1.852,0.41-2.723H3.548V27.04c0,0.349,0.125,0.646,0.373,0.895c0.249,0.249,0.561,0.372,0.934,0.372h22.252
		c0.348,0,0.648-0.124,0.896-0.372C28.252,27.686,28.377,27.389,28.377,27.04z M22.478,15.925c0-1.715-0.635-3.182-1.905-4.4
		c-1.268-1.217-2.788-1.827-4.555-1.827c-1.767,0-3.274,0.61-4.517,1.827c-1.245,1.219-1.88,2.686-1.904,4.4
		c-0.024,1.717,0.609,3.185,1.904,4.401c1.293,1.219,2.801,1.828,4.517,1.828c1.793,0,3.311-0.609,4.555-1.828
		C21.817,19.109,22.452,17.642,22.478,15.925z M28.377,8.429V4.998c0-0.372-0.138-0.707-0.412-1.006
		c-0.273-0.299-0.609-0.435-1.007-0.409h-3.661c-0.397,0-0.734,0.137-1.006,0.409c-0.275,0.273-0.411,0.61-0.411,1.006v3.431
		c0,0.424,0.136,0.772,0.411,1.045c0.272,0.273,0.609,0.41,1.006,0.41h3.661c0.398,0,0.734-0.137,1.007-0.41
		C28.24,9.201,28.377,8.853,28.377,8.429z"/>
</g>
</svg>
