<?xml version="1.0" encoding="utf-8"?><svg width="80" height="43" viewBox="0 0 80 43" xmlns="http://www.w3.org/2000/svg" xmlns:xlink="http://www.w3.org/1999/xlink"><svg width="23" height="23" viewBox="-1.52 -1.52 35.05 35.05" id="description" x="34" xmlns="http://www.w3.org/2000/svg"><title>description</title><path fill="none" stroke="#333" stroke-width="1.28" d="M31.36 16c0 8.483-6.877 15.36-15.36 15.36S.64 24.483.64 16 7.517.64 16 .64 31.36 7.517 31.36 16z"/><path d="M18.921 21.174c-.311.692-.79 1.4-1.449 2.121-.66.721-1.487 1.079-2.478 1.079-.667 0-1.166-.166-1.495-.49a1.59 1.59 0 0 1-.5-1.176c0-.458.143-1.093.44-1.916l1.53-4.192c.154-.381.229-.641.229-.774a.322.322 0 0 0-.109-.237.308.308 0 0 0-.236-.109c-.269 0-.564.21-.888.628-.32.421-.561.801-.717 1.13H12.2c.472-1.043 1.08-1.851 1.824-2.428.75-.575 1.501-.864 2.246-.864.52 0 .952.128 1.3.387.346.257.52.602.52 1.027 0 .453-.09.91-.268 1.372l-1.851 4.984c-.127.34-.191.616-.191.831 0 .096.04.187.114.28.074.09.155.134.244.134.236 0 .477-.127.732-.38.255-.255.571-.719.95-1.405l1.1-.001zM19.8 9.153c0 .426-.15.795-.453 1.1a1.476 1.476 0 0 1-1.08.456c-.443 0-.818-.15-1.114-.456a1.519 1.519 0 0 1-.447-1.1c0-.413.152-.773.447-1.079.296-.306.668-.456 1.114-.456a1.541 1.541 0 0 1 1.333.756c.136.225.201.484.201.778z"/></svg><svg width="29.56" height="23" viewBox="-1.52 -1.52 45.05 35.05" id="order" y="19.96" xmlns="http://www.w3.org/2000/svg"><title>order</title><path d="M41.299 5.534c-.242-.405-.741-.89-1.731-.89H11.867l-1.342-2.952a2.53 2.53 0 0 0-.352-.621 2.218 2.218 0 0 0-.365-.405 2.836 2.836 0 0 0-.354-.262L9.387.366a2.797 2.797 0 0 0-.381-.187L8.918.147a3.956 3.956 0 0 0-.397-.106L8.329.02a1.89 1.89 0 0 0-.253-.021H2.644c-1.456 0-2.645 1.21-2.645 2.691s1.189 2.686 2.645 2.686h3.739l1.509 3.328c.37 1.098.888 2.045.888 2.045l3.734 8.531c.03.069.066.13.117.214l.698 1.509a2.7 2.7 0 0 0 1.819 1.813l-.013.118 18.966-.016-.014-.107a2.673 2.673 0 0 0 1.8-1.808l4.534-10.224c.307-.6 1.81-3.67.877-5.246zm-2.227 4.564l-4.301 9.718-.117-.032-.192.731a1.18 1.18 0 0 1-1.162.872l-.006-.005-.858-.024v.038l-16.56-.011a1.16 1.16 0 0 1-1.117-.872l-.197-.726-.117.027-4.328-9.765c0-.01-.488-.894-.813-1.877L7.342 3.846H2.643a1.15 1.15 0 0 1-1.141-1.155c0-.642.51-1.157 1.141-1.157l5.485.005.138.014c.058.011.109.026.206.054a1.9 1.9 0 0 1 .19.099c.058.03.104.074.178.13.05.048.093.101.147.168.058.086.106.168.155.291l1.762 3.88h28.661c.352 0 .419.109.445.154.323.539-.216 2.371-.939 3.768zm-20.306 14.38c-2.037 0-3.693 1.686-3.693 3.76 0 2.075 1.656 3.763 3.693 3.763 2.038 0 3.698-1.688 3.698-3.763 0-2.074-1.659-3.76-3.698-3.76zm0 6.165c-1.301 0-2.362-1.083-2.362-2.405 0-1.325 1.061-2.405 2.362-2.405s2.358 1.08 2.358 2.405c.002 1.322-1.058 2.405-2.358 2.405zm12.812-6.165c-2.034 0-3.691 1.686-3.691 3.76 0 2.075 1.658 3.763 3.691 3.763 2.042 0 3.698-1.688 3.698-3.763 0-2.074-1.654-3.76-3.698-3.76zm0 6.165c-1.301 0-2.358-1.083-2.358-2.405 0-1.325 1.058-2.405 2.358-2.405s2.366 1.08 2.366 2.405c.002 1.322-1.064 2.405-2.366 2.405z"/></svg><svg width="34" height="19.96" viewBox="-1.78 -1.78 60.56 35.56" id="price" xmlns="http://www.w3.org/2000/svg"><title>price</title><path d="M17.162 21.133c0 1.738-.643 3.168-1.934 4.294-1.288 1.131-3.09 1.843-5.406 2.138V32H7.377v-4.264c-1.414 0-2.787-.114-4.115-.336-1.325-.224-2.414-.534-3.261-.928v-2.986c1.048.477 2.259.858 3.63 1.16 1.373.299 2.622.448 3.746.448v-8.416c-2.592-.829-4.408-1.792-5.45-2.89C.881 12.695.357 11.278.357 9.54c0-1.667.645-3.038 1.93-4.109 1.282-1.072 2.982-1.723 5.091-1.952v-3.48h2.443v3.443c2.331.062 4.573.533 6.736 1.413l-.99 2.504c-1.882-.747-3.794-1.197-5.747-1.334v8.301c1.989.634 3.47 1.258 4.461 1.866.989.603 1.712 1.302 2.181 2.085.47.784.701 1.734.701 2.856zM3.565 9.506c0 .971.283 1.746.853 2.333.571.589 1.557 1.144 2.958 1.664V6.101c-1.253.205-2.197.6-2.843 1.195-.646.592-.968 1.33-.968 2.21zm10.373 11.876c0-.915-.28-1.658-.843-2.229-.565-.57-1.656-1.133-3.275-1.691v7.44c2.749-.381 4.118-1.557 4.118-3.52zM33.586 1.757L23.25 29.723h-3.149L30.437 1.757h3.149zM49.061 4.229c-4.034 0-6.552 2.566-7.55 7.706h9.674v2.47h-9.934l-.042 1.085v1.227l.042.858h8.773v2.472H41.55c.47 2.296 1.346 4.069 2.627 5.33 1.286 1.253 3 1.88 5.149 1.88 1.971 0 3.923-.422 5.861-1.264v2.87c-1.846.83-3.85 1.246-6.008 1.246-3 0-5.41-.858-7.24-2.576-1.826-1.715-3.029-4.208-3.613-7.486H35.18v-2.472h2.882l-.037-.8v-.842l.037-1.53H35.18v-2.469h3.107c.493-3.325 1.664-5.925 3.512-7.786 1.84-1.861 4.264-2.792 7.261-2.792 2.539 0 4.853.618 6.939 1.856l-1.344 2.659c-2.099-1.098-3.963-1.643-5.594-1.643z"/></svg><svg width="22.34" height="23" viewBox="-1.52 -1.52 34.05 35.05" id="reviews" x="57" xmlns="http://www.w3.org/2000/svg"><title>reviews</title><path fill="none" stroke="#333" stroke-width=".627" stroke-miterlimit="10" stroke-linecap="round" stroke-linejoin="round" d="M12.262 27.61c-1.608 1.83-2.972 3.012-5.424 3.617-1.104.274-2.555.622-3.678.375 2.36-1.911 3.411-4.727 1.828-7.565-.887-1.59-2.352-2.75-3.216-4.377C-3.265 10.174 5.599.313 15.404.313c8.296 0 15.027 6.11 15.027 13.648 0 4.038-2.022 7.822-5.203 10.324-3.858 3.034-8.237 3.324-12.967 3.324z"/><path d="M17.355 14.072c0 1.064-.875 1.926-1.954 1.926s-1.954-.862-1.954-1.926.875-1.926 1.954-1.926 1.954.862 1.954 1.926zM22.775 14.072c0 1.065-.875 1.928-1.954 1.928s-1.954-.863-1.954-1.928.875-1.928 1.954-1.928 1.954.863 1.954 1.928zM11.94 14.072c0 1.065-.875 1.928-1.955 1.928s-1.955-.863-1.955-1.928.875-1.928 1.955-1.928 1.955.863 1.955 1.928z"/></svg></svg>