<?xml version="1.0" encoding="utf-8"?>
<!-- Generator: Adobe Illustrator 14.0.0, SVG Export Plug-In . SVG Version: 6.00 Build 43363)  -->
<!DOCTYPE svg PUBLIC "-//W3C//DTD SVG 1.1//EN" "http://www.w3.org/Graphics/SVG/1.1/DTD/svg11.dtd">
<?xml-stylesheet type="text/css" href="styles.css"?>
<svg version="1.1" id="Layer_1" xmlns="http://www.w3.org/2000/svg" xmlns:xlink="http://www.w3.org/1999/xlink" x="0px" y="0px"
	 width="12px" height="12px" viewBox="0 0 12 12" enable-background="new 0 0 12 12" xml:space="preserve">
<g>
	<path class="svg-phone" d="M12,9.481c0,0.151-0.029,0.35-0.092,0.594c-0.061,0.246-0.122,0.438-0.184,0.581
		c-0.112,0.284-0.457,0.591-1.037,0.916C10.158,11.857,9.634,12,9.116,12c-0.164,0-0.315-0.01-0.458-0.031
		c-0.144-0.02-0.306-0.055-0.488-0.106c-0.184-0.05-0.315-0.092-0.397-0.122l-0.9-0.32c-0.55-0.204-1.043-0.443-1.481-0.719
		C4.659,10.254,3.906,9.643,3.133,8.87C2.359,8.098,1.749,7.343,1.301,6.61C1.027,6.173,0.792,5.68,0.599,5.129L0.447,4.702
		C0.365,4.468,0.304,4.311,0.264,4.229C0.223,4.147,0.182,4.016,0.141,3.832L0.034,3.343c-0.03-0.142-0.04-0.29-0.03-0.442
		c0-0.529,0.147-1.058,0.443-1.588c0.315-0.58,0.615-0.926,0.9-1.038c0.142-0.062,0.335-0.123,0.58-0.183
		C2.171,0.031,2.37,0,2.522,0c0.082,0,0.143,0.011,0.184,0.031c0.102,0.031,0.254,0.25,0.458,0.656
		c0.062,0.102,0.142,0.254,0.244,0.458c0.102,0.204,0.204,0.382,0.306,0.535c0.102,0.153,0.188,0.306,0.259,0.458
		c0.02,0.021,0.071,0.091,0.153,0.213c0.081,0.123,0.142,0.224,0.183,0.306c0.041,0.082,0.062,0.163,0.062,0.244
		c0,0.112-0.082,0.254-0.244,0.427C3.962,3.502,3.784,3.654,3.59,3.786C3.397,3.918,3.225,4.071,3.072,4.244s-0.234,0.3-0.244,0.382
		c0,0.051,0.015,0.117,0.045,0.198l0.062,0.168c0.01,0.031,0.05,0.102,0.122,0.214c0.072,0.112,0.107,0.163,0.107,0.152
		c0.427,0.784,0.921,1.457,1.48,2.016c0.56,0.56,1.226,1.054,2,1.481c0.01,0,0.061,0.029,0.152,0.092
		c0.092,0.06,0.162,0.102,0.214,0.122l0.168,0.075c0.061,0.031,0.127,0.041,0.197,0.031c0.102,0,0.229-0.077,0.383-0.229
		c0.151-0.154,0.305-0.33,0.457-0.534C8.368,8.209,8.525,8.03,8.688,7.879c0.162-0.154,0.305-0.235,0.428-0.247
		c0.069,0,0.146,0.021,0.229,0.063C9.426,7.735,9.527,7.797,9.65,7.879C9.772,7.96,9.843,8.011,9.864,8.03l0.991,0.565
		c0.193,0.111,0.352,0.197,0.473,0.26c0.396,0.193,0.61,0.34,0.643,0.442C11.99,9.339,12,9.399,12,9.481z"/>
</g>
</svg>
