<?xml version="1.0"?>
<!--Icons from directory ""-->
<svg xmlns="http://www.w3.org/2000/svg" width="32" height="256" viewBox="0 0 32 256"><svg xmlns:xlink="http://www.w3.org/1999/xlink" id="Instagram" xml:space="preserve" viewBox="0 0 110 110" version="1.1" y="0" x="0px" enable-background="new 0 0 110 110" width="32" height="32">		<linearGradient id="Instagram-SVGID_1_" y2="106.87" gradientUnits="userSpaceOnUse" x2="55" y1="1.8575" x1="55">			<stop stop-color="#FEC053" offset="0"/>			<stop stop-color="#F2203E" offset=".3273"/>			<stop stop-color="#B729A8" offset=".6485"/>			<stop stop-color="#5342D6" offset="1"/>		</linearGradient>		<path d="m110 55c0 30.3-24.8 55-55 55-30.3 0-55-24.8-55-55 0-30.3 24.8-55 55-55 30.3 0 55 24.8 55 55z" fill="url(#Instagram-SVGID_1_)"/>			<path d="m71.1 92.4h-32.3c-11.8 0-21.3-9.6-21.3-21.3v-32.3c0-11.7 9.6-21.3 21.3-21.3h32.3c11.8 0 21.3 9.6 21.3 21.3v32.3c0 11.8-9.5 21.3-21.3 21.3zm-32.2-68.4c-8.2 0-14.9 6.7-14.9 14.9v32.3c0 8.2 6.7 14.9 14.9 14.9h32.3c8.2 0 14.9-6.7 14.9-14.9v-32.3c0-8.2-6.7-14.9-14.9-14.9h-32.3z" fill="#fff"/>			<path d="m55 74.2c-10.6 0-19.2-8.6-19.2-19.2s8.6-19.2 19.2-19.2 19.2 8.6 19.2 19.2c0 10.6-8.6 19.2-19.2 19.2zm0-32c-7 0-12.8 5.7-12.8 12.8 0 7 5.7 12.8 12.8 12.8 7 0 12.8-5.7 12.8-12.8 0-7-5.8-12.8-12.8-12.8z" fill="#fff"/>			<circle cy="34.7" cx="75" r="4.6" fill="#fff"/></svg><svg xmlns:xlink="http://www.w3.org/1999/xlink" id="email" xml:space="preserve" viewBox="250 340 110 110" version="1.1" y="32" x="0px" enable-background="new 250 340 110 110" width="32" height="32">		<path d="m360 395c0 30.3-24.8 55-55 55-30.3 0-55-24.8-55-55 0-30.3 24.8-55 55-55 30.3 0 55 24.8 55 55z" fill="#F7F246"/>	<path d="m335.5 364.6h-61c-5.2 0-9.5 4.1-9.5 9.1v42.5c0 5 4.3 9.1 9.5 9.1h61c5.2 0 9.5-4.1 9.5-9.1v-42.5c0-5-4.3-9.1-9.5-9.1zm0 52.7h-61c-0.8 0-1.4-0.5-1.4-1.1v-36.8l27.6 23.3c0.6 0.5 1.3 0.7 2 0.7h4.7c0.7 0 1.5-0.3 2-0.7l27.6-23.3v36.9c-0.1 0.5-0.7 1-1.5 1zm-30.5-21.9l-26.8-22.7h53.7l-26.9 22.7z" fill="#fff"/></svg><svg xmlns:xlink="http://www.w3.org/1999/xlink" id="fb" xml:space="preserve" viewBox="0 0 110 110" version="1.1" y="64" x="0px" enable-background="new 0 0 110 110" width="32" height="32">	<circle id="fb-XMLID_21_" cy="55" cx="55" r="55" fill="#6081C4"/>	<path id="fb-XMLID_19_" d="m60 42v-5.1c0-2.5 1.5-3.9 2.7-3.9s7.3 0 7.3 0v-10.4h-9.7c-11.2 0-13.3 8.3-13.3 13.7v5.8h-7v13h7v32h13v-32h9l0.5-5.1 0.7-7.9h-10.2v-0.1z" fill="#fff"/></svg><svg xmlns:xlink="http://www.w3.org/1999/xlink" id="skype" xml:space="preserve" viewBox="0 0 110 110" version="1.1" y="96" x="0px" enable-background="new 0 0 110 110" width="32" height="32">	<circle id="skype-XMLID_76_" cy="55" cx="55" r="55" fill="#32C5F0"/>	<path d="m86 60.5c0.5-2.1 0.7-4.3 0.7-6.6 0-0.8 0-1.5-0.1-2.3-1.2-15.8-14.6-28.3-31-28.3-1.8 0-3.6 0.2-5.3 0.4-2.8-1.7-6.1-2.7-9.6-2.7-10 0-18 8-18 17.8 0 3.3 0.9 6.3 2.5 9-0.2 1.1-0.4 2.2-0.5 3.4-0.1 0.9-0.1 1.8-0.1 2.8 0 16.9 13.9 30.6 31.1 30.6 1.9 0 3.8-0.2 5.7-0.5 2.5 1.3 5.4 2.1 8.5 2.1 10 0 18-8 18-17.8 0-2.8-0.7-5.5-1.9-7.9zm-14.4 8.1c-1.4 2-3.6 3.6-6.3 4.7s-6 1.7-9.7 1.7c-4.5 0-8.2-0.8-11.1-2.3-2.1-1.1-3.8-2.6-5.1-4.5s-2-3.7-2-5.5c0-1.1 0.4-2.1 1.3-2.9 0.8-0.8 1.9-1.2 3.2-1.2 1.1 0 2 0.3 2.7 0.9s1.3 1.5 1.8 2.6c0.6 1.2 1.2 2.3 1.8 3.1s1.5 1.5 2.6 2 2.6 0.8 4.5 0.8c2.6 0 4.7-0.5 6.3-1.6 1.6-1 2.3-2.3 2.3-3.8 0-1.2-0.4-2.2-1.2-2.9-0.8-0.8-2-1.4-3.3-1.8-1.4-0.4-3.3-0.9-5.7-1.4-3.2-0.7-6-1.5-8.1-2.4-2.2-0.9-4-2.2-5.3-3.9-0.4-0.5-0.8-1.1-1.1-1.7-0.6-1.3-0.9-2.8-0.9-4.4 0-2.3 0.7-4.4 2.1-6.2s3.4-3.2 6-4.1c2.6-0.9 5.6-1.4 9.1-1.4 2.8 0 5.2 0.3 7.2 0.9s3.8 1.5 5.1 2.5c1.4 1 2.4 2.2 3 3.3 0.6 1.2 1 2.4 1 3.5s-0.4 2.1-1.3 3-1.9 1.3-3.2 1.3c-1.2 0-2.1-0.3-2.7-0.8s-1.2-1.3-1.9-2.4c-0.8-1.4-1.7-2.6-2.8-3.4-1-0.8-2.8-1.2-5.2-1.2-2.2 0-4 0.4-5.4 1.3-1.3 0.8-1.9 1.8-1.9 2.9 0 0.7 0.2 1.3 0.6 1.8s1.1 1 1.9 1.4 1.7 0.7 2.5 1c0.2 0 0.3 0.1 0.5 0.1 0.9 0.2 2.1 0.5 3.8 0.9 2.5 0.5 4.8 1.1 6.9 1.8s3.9 1.5 5.3 2.4c1.5 1 2.7 2.2 3.5 3.6 0.8 1.5 1.3 3.3 1.3 5.4 0.1 2.6-0.7 4.9-2.1 6.9z" fill="#fff"/></svg><svg xmlns:xlink="http://www.w3.org/1999/xlink" id="telegram" xml:space="preserve" viewBox="250 340 110 110" version="1.1" y="128" x="0px" enable-background="new 250 340 110 110" width="32" height="32">	<circle cy="395" cx="306" r="55" fill="#40B0EF"/>	<g id="telegram-Het1PX.tif">			<path d="m334 373.5c-0.1 1.4-0.5 3-0.9 4.5-2.7 12.8-5.4 25.5-8.1 38.2-0.2 0.7-0.3 1.5-0.7 2.1-0.6 1.1-1.6 1.5-2.8 1.2-0.8-0.2-1.4-0.5-2.1-1-4.1-3-8.2-6-12.2-9.1-0.5-0.4-0.8-0.3-1.3 0.1-2 2-4.1 3.9-6.1 5.9-0.8 0.8-1.6 1.2-2.7 1.2-0.8 0-1.2-0.4-1.5-1.1-1.3-3.9-2.5-7.9-3.8-11.8-0.4-1.3-0.9-2.7-1.3-4-0.1-0.5-0.4-0.7-0.9-0.9-4-1.2-8-2.5-12-3.7-0.5-0.2-1.1-0.3-1.5-0.6-1.1-0.7-1.2-1.7-0.2-2.6 0.7-0.6 1.5-1 2.3-1.3 5.4-2.1 10.9-4.2 16.3-6.3 11.7-4.5 23.5-9.1 35.2-13.6 0.1 0 0.2-0.1 0.3-0.1 2.3-0.8 4 0.4 4 2.9zm-36.8 39.4c0.2-0.1 0.2-0.2 0.2-0.4 0.3-2.9 0.5-5.7 0.8-8.6 0.1-0.7 0.3-1.2 0.8-1.7 7.7-6.9 15.3-13.8 22.9-20.7 0.5-0.4 1-0.9 1.4-1.3 0.2-0.2 0.5-0.4 0.3-0.7s-0.5-0.3-0.8-0.3c-0.6 0.1-1.1 0.4-1.6 0.7-9.4 5.9-18.8 11.9-28.3 17.8-0.5 0.3-0.6 0.6-0.4 1.2 1.2 3.5 2.3 7 3.4 10.5 0.5 1.2 0.9 2.3 1.3 3.5z" fill="#FEFEFE"/>	</g></svg><svg xmlns:xlink="http://www.w3.org/1999/xlink" id="viber" xml:space="preserve" viewBox="251 340 110 110" version="1.1" y="160" x="0px" enable-background="new 251 340 110 110" width="32" height="32">	<path id="viber-XMLID_96_" d="m361 395c0 30.4-24.6 55-55 55s-55-24.6-55-55 24.6-55 55-55 55 24.6 55 55z" fill="#AE56A4"/>	<g fill="#fff">		<path id="viber-XMLID_94_" d="m308 365.2c16.2 2.4 23.7 10 25.8 26v0.4c0.1 1.5-0.2 3.3 1.8 3.4 1.7 0 1.8-1.2 1.8-2.5v-1.1c0.2-15.1-13.2-29.1-28.8-29.6-1.2 0.2-3.6-0.8-3.8 1.8-0.2 1.7 1.8 1.4 3.2 1.6z"/>		<path id="viber-XMLID_93_" d="m311.2 369.6c-1.6-0.2-3.6-0.9-4 1.2-0.4 2.2 1.9 2 3.4 2.3 10 2.2 13.5 5.8 15.2 15.5 0.1 0.4 0.1 0.9 0.1 1.4 0.1 1.1 0.4 2.2 2.1 1.9 0.9-0.1 1.2-0.7 1.3-1.3 0.1-0.7 0-1.4 0-2 0.1-9.3-8.1-17.8-18.1-19z"/>		<path id="viber-XMLID_92_" d="m312.1 377.3c-1 0-2.1 0.1-2.4 1.2-0.6 1.6 0.6 2 1.9 2.2 4.1 0.6 6.3 3 6.7 7 0.1 0.5 0.2 1 0.5 1.3 0.3 0.4 0.8 0.6 1.4 0.5 0.3 0 0.6-0.1 0.8-0.3 0.7-0.5 0.8-1.5 0.8-2.4-0.1-4.4-5.3-9.6-9.7-9.5z"/>		<path id="viber-XMLID_91_" d="m332.9 408.9c-2-1.6-4.2-3-6.3-4.5-4.3-2.9-8.1-3.2-11.3 1.6-1.8 2.6-4.3 2.8-6.9 1.6-7.2-3.2-12.7-8.1-16-15.3-0.5-1.1-0.8-2.2-0.9-3.2-0.1-1.9 0.7-3.6 2.8-5 1.8-1.2 3.6-2.6 3.4-5.2-0.2-3.4-8.6-14.7-11.9-15.9-1.4-0.5-2.7-0.5-4.1 0-7.7 2.6-11 8.8-7.9 16.2 1.7 4.1 3.7 8 5.8 11.6 9.5 15.9 23.6 27.5 41.7 35.2 1.3 0.5 2.7 0.7 3.4 0.9 5.1 0 11-4.7 12.7-9.5 1.7-4.5-1.8-6.3-4.5-8.5z"/>	</g></svg><svg xmlns:xlink="http://www.w3.org/1999/xlink" id="vk" xml:space="preserve" viewBox="0 0 110 110" version="1.1" y="192" x="0px" enable-background="new 0 0 110 110" width="32" height="32">	<circle id="vk-XMLID_11_" cy="55" cx="55" r="55" fill="#4C75A3"/>	<path d="m86.8 40c-0.9-0.8-4.3-0.7-7.7-0.7-3.5 0-6.9 0-7.7 0.4-0.7 0.3-2.4 4.3-4.6 8.4-2.4 4.7-5.5 9.2-7.4 9.1-2.5 0-1.9-7.7-1.8-13.4 0.1-3.7-0.5-4.9-1.1-5.3-1.3-0.9-4.9-1.8-4.9-1.8s-10.8-0.8-12.3 3.9c2 0.3 5.6-0.4 4.2 14.1-0.1 0.7-1.6 6.7-6.7-1.4-1.2-2-6.1-14-7.7-14.1-5.6-0.2-11.1-0.4-13 0.7-1.8 1 2.4 9.3 9.5 20.4 5.8 9.1 11.9 16.2 22.5 17.9 2 0.2 7.2 0.4 8.8-0.3 1.1-0.5-0.2-8.4 3.5-9.1 1.7-0.3 8.1 8.2 10.6 9.1 1.5 0.6 4.7 0.8 8.1 0.7 3.6-0.1 7.7 0.3 8.1-2.1 0.9-5.4-10.9-12.5-11.3-15.8-0.3-2.4 4.3-6.8 6.7-10.2 2.8-4 6-8.9 4.2-10.5z" fill="#fff"/></svg><svg xmlns:xlink="http://www.w3.org/1999/xlink" id="whatsapp" xml:space="preserve" viewBox="251 340 110 110" version="1.1" y="224" x="0px" enable-background="new 251 340 110 110" width="32" height="32">	<circle id="whatsapp-XMLID_36_" cy="395" cx="306" r="55" fill="#23B180"/>	<g fill="#fff">		<path d="m338.6 391c-0.4-17.2-14.6-30.9-32-30.9-17.2 0-31.2 13.5-31.9 30.3v1.4c0 6 1.7 11.6 4.6 16.4l-5.8 17 17.7-5.6c4.6 2.5 9.9 3.9 15.5 3.9 17.7 0 32-14.2 32-31.7-0.1-0.3-0.1-0.5-0.1-0.8zm-32 27.5c-5.5 0-10.5-1.6-14.8-4.4l-10.3 3.3 3.4-9.9c-3.2-4.4-5.1-9.8-5.1-15.6 0-0.9 0-1.7 0.1-2.6 1.3-13.5 12.8-24.1 26.8-24.1 14.1 0 25.7 10.9 26.8 24.6 0.1 0.7 0.1 1.4 0.1 2.1-0.1 14.6-12.2 26.6-27 26.6z"/>		<path id="whatsapp-XMLID_32_" d="m321.2 398.2c-0.8-0.4-4.6-2.3-5.4-2.5-0.7-0.3-1.2-0.4-1.8 0.4-0.5 0.8-2 2.5-2.5 3s-0.9 0.6-1.7 0.2c-0.8-0.4-3.3-1.2-6.3-3.9-2.3-2.1-3.9-4.6-4.4-5.4s0-1.2 0.3-1.6c0.4-0.3 0.8-0.9 1.2-1.4 0.1-0.1 0.2-0.3 0.3-0.4 0.2-0.3 0.3-0.6 0.5-0.9 0.3-0.5 0.1-1-0.1-1.4s-1.8-4.2-2.4-5.8c-0.7-1.6-1.3-1.3-1.8-1.3s-1-0.1-1.5-0.1-1.4 0.2-2.1 1c-0.5 1-2.5 2.9-2.5 6.7 0 0.9 0.2 1.8 0.4 2.6 0.8 2.7 2.5 5 2.8 5.4 0.4 0.5 5.4 8.6 13.4 11.7s8 2.1 9.4 1.9c1.4-0.1 4.6-1.9 5.3-3.7s0.7-3.4 0.5-3.7c-0.3-0.2-0.8-0.4-1.6-0.8z"/>	</g></svg></svg>
