<?xml version="1.0" encoding="UTF-8"?>
<svg version="1.1" xmlns="http://www.w3.org/2000/svg" xmlns:xlink="http://www.w3.org/1999/xlink">

<view id="arrow-up-view" viewBox="0 0 51 32"/>
<g id="arrow-up">
<path class="path1" fill="#333333" d="M46.88 32c-0.432 0-0.8-0.198-1.107-0.592l-20.221-21.562-20.128 21.562c-0.368 0.394-0.768 0.592-1.197 0.592s-0.829-0.198-1.197-0.592l-2.57-2.758c-0.31-0.323-0.461-0.717-0.461-1.178s0.15-0.886 0.461-1.28l23.898-25.6c0.368-0.394 0.765-0.592 1.194-0.592s0.829 0.198 1.197 0.592l23.901 25.6c0.365 0.326 0.55 0.752 0.55 1.28 0 0.522-0.186 0.915-0.55 1.178l-2.576 2.758c-0.304 0.394-0.704 0.592-1.194 0.592z"></path>
</g>

<defs>
<symbol id="icon-rect" viewBox="0 0 32 32">
<title>rect</title>
<path class="path1" fill="#8aaa4b" d="M0 0h14v14h-14v-14zM4 10h6v-6h-6v6z"></path>
<path class="path2" fill="#8aaa4b" d="M18 0h14v14h-14v-14zM22 10h6v-6h-6v6z"></path>
<path class="path3" fill="#8aaa4b" d="M0 18h14v14h-14v-14zM4 28h6v-6h-6v6z"></path>
<path class="path4" fill="#8aaa4b" d="M18 18h14v14h-14v-14zM22 28h6v-6h-6v6z"></path>
</symbol>
<symbol id="icon-expand" viewBox="0 0 32 32">
<title>expand</title>
<path class="path1" fill="#fff" d="M29.333 0h2.667v12h-2.667v-12z"></path>
<path class="path2" fill="#fff" d="M20 0h12v2.667h-12v-2.667z"></path>
<path class="path3" fill="#fff" d="M0 20h2.667v12h-2.667v-12z"></path>
<path class="path4" fill="#fff" d="M0 29.333h12v2.667h-12v-2.667z"></path>
<path class="path5" fill="#fff" d="M1.009 29.104l9.428-9.428 1.885 1.885-9.428 9.428-1.885-1.885z"></path>
<path class="path6" fill="#fff" d="M20.011 9.993l9.983-9.983 1.997 1.997-9.983 9.983-1.997-1.997z"></path>
</symbol>
<symbol id="vk" viewBox="0 0 57 32">
<title>Vkontakte social icon</title>
<path class="path1" fill="#fff" d="M57.061 2.304c0.464 1.257-1.031 4.117-4.475 8.581-0.462 0.629-1.102 1.465-1.918 2.512-1.563 1.918-2.45 3.191-2.665 3.819-0.357 0.802-0.231 1.586 0.373 2.354 0.357 0.418 1.173 1.221 2.45 2.407h0.055v0.053l0.053 0.050c2.805 2.546 4.706 4.693 5.701 6.437l0.213 0.366c0.071 0.139 0.123 0.402 0.16 0.784 0.037 0.384 0.037 0.715 0 0.994s-0.286 0.542-0.745 0.784c-0.462 0.245-1.049 0.366-1.758 0.366l-7.618 0.158c-0.464 0.071-1.013 0.018-1.653-0.158-0.638-0.174-1.154-0.4-1.543-0.679l-0.587-0.315c-0.603-0.416-1.296-1.045-2.078-1.881-0.784-0.839-1.456-1.589-2.025-2.249-0.567-0.663-1.173-1.239-1.81-1.726s-1.207-0.626-1.705-0.421c-0.034 0-0.105 0.037-0.213 0.105-0.107 0.071-0.286 0.21-0.533 0.421-0.249 0.208-0.462 0.489-0.64 0.837-0.178 0.35-0.338 0.857-0.478 1.518-0.144 0.663-0.213 1.431-0.213 2.302 0 0.281-0.037 0.542-0.107 0.786s-0.142 0.421-0.213 0.523l-0.107 0.155c-0.354 0.384-0.889 0.594-1.598 0.626h-3.41c-1.422 0.105-2.859-0.050-4.315-0.471-1.458-0.418-2.77-0.923-3.943-1.518-1.173-0.592-2.185-1.239-3.038-1.936-0.855-0.697-1.563-1.257-2.13-1.673l-0.747-0.734c-0.178-0.174-0.443-0.473-0.8-0.889-0.354-0.421-1.067-1.289-2.133-2.617-1.063-1.321-2.11-2.805-3.141-4.446-1.029-1.639-2.238-3.678-3.623-6.119s-2.681-5.093-3.89-7.954c-0.142-0.313-0.213-0.574-0.213-0.786 0-0.208 0.037-0.366 0.107-0.471l0.105-0.155c0.32-0.384 0.887-0.576 1.705-0.576l8.151-0.050c0.249 0.034 0.478 0.103 0.693 0.208 0.213 0.103 0.373 0.174 0.48 0.208l0.16 0.103c0.32 0.213 0.551 0.526 0.693 0.946 0.389 0.978 0.853 1.989 1.385 3.033l1.225 2.354 0.48 0.837c0.567 1.189 1.118 2.199 1.65 3.035s1.013 1.497 1.44 1.989c0.427 0.489 0.834 0.871 1.225 1.15 0.389 0.281 0.727 0.421 1.013 0.421 0.283 0 0.551-0.053 0.8-0.158l0.16-0.158c0.069-0.066 0.192-0.279 0.373-0.624 0.176-0.352 0.302-0.805 0.373-1.362l0.265-2.407c0.107-1.047 0.107-2.251 0-3.611-0.034-0.802-0.123-1.518-0.265-2.144-0.142-0.629-0.265-1.081-0.373-1.36l-0.215-0.315c-0.496-0.663-1.333-1.079-2.505-1.257-0.283-0.069-0.231-0.313 0.16-0.731 0.32-0.347 0.693-0.645 1.12-0.887 1.031-0.489 3.39-0.715 7.088-0.681 1.632 0.037 2.962 0.158 3.995 0.366 0.425 0.105 0.761 0.245 1.013 0.421 0.247 0.176 0.462 0.4 0.64 0.679 0.176 0.281 0.265 0.594 0.265 0.942 0 0.35 0.037 0.805 0.107 1.36 0.069 0.558 0.069 1.081 0 1.57-0.071 0.487-0.107 1.186-0.107 2.094v2.407l-0.055 1.205c-0.037 0.592-0.037 1.065 0 1.413l0.107 1.152c0.034 0.418 0.142 0.802 0.32 1.152 0.176 0.347 0.409 0.592 0.693 0.731l0.478 0.103c0.178 0.034 0.443-0.071 0.8-0.315 0.357-0.242 0.729-0.574 1.118-0.994 0.391-0.418 0.907-1.079 1.545-1.989 0.64-0.905 1.314-1.952 2.025-3.138 1.17-2.023 2.238-4.201 3.193-6.539 0.071-0.21 0.162-0.384 0.267-0.523s0.213-0.242 0.32-0.313l0.105-0.105 0.585-0.158c0.283-0.071 0.478-0.071 0.585 0l8.523-0.053c0.782-0.105 1.422-0.087 1.918 0.053s0.8 0.313 0.905 0.523l0.222 0.258z"></path>
</symbol>
<symbol id="icon-weather" viewBox="0 0 32 32">
<title>weather</title>
<path class="path1" d="M0 23.001c0-1.88 0.663-3.492 1.987-4.836 1.323-1.347 2.915-2.072 4.773-2.18-0.513-0.961-0.768-1.953-0.768-2.977 0-1.923 0.693-3.576 2.081-4.964s3.031-2.079 4.933-2.067c1.9 0.012 3.528 0.679 4.885 2.001 1.356 1.325 2.065 2.959 2.131 4.901 1.601 0.683 2.937 1.74 4.004 3.171 0.277-0.043 0.609-0.065 0.993-0.065 1.921 0 3.567 0.695 4.933 2.083s2.049 3.031 2.049 4.933c0 1.9-0.683 3.544-2.049 4.932-1.367 1.389-3.012 2.083-4.933 2.083-0.896 0-1.729-0.149-2.499-0.448-1.881 1.623-4.049 2.432-6.505 2.432-2.455 0-4.623-0.809-6.501-2.432-0.789 0.299-1.623 0.448-2.499 0.448-1.921 0-3.577-0.695-4.965-2.083s-2.071-3.032-2.051-4.932zM0 13.008c0-0.299 0.096-0.545 0.288-0.737 0.193-0.193 0.428-0.289 0.705-0.289h2.017c0.277 0 0.513 0.096 0.705 0.289 0.192 0.192 0.288 0.439 0.288 0.737s-0.096 0.533-0.288 0.704c-0.193 0.171-0.428 0.268-0.705 0.288h-2.016c-0.277 0-0.513-0.097-0.705-0.288-0.192-0.192-0.289-0.427-0.289-0.704zM2.019 23.001c0 1.365 0.481 2.54 1.441 3.523 0.96 0.981 2.147 1.473 3.556 1.473 1.027 0 1.975-0.309 2.851-0.928 1.644 1.964 3.695 2.947 6.151 2.947s4.496-0.983 6.119-2.947c0.876 0.619 1.836 0.928 2.883 0.928 1.365 0 2.54-0.492 3.524-1.473 0.983-0.983 1.473-2.157 1.473-3.523 0-1.367-0.492-2.541-1.473-3.524-0.983-0.983-2.157-1.472-3.524-1.472-0.661 0-1.293 0.117-1.889 0.352-0.789-1.495-1.933-2.637-3.427-3.428-0.599-0.34-1.228-0.565-1.889-0.673-0.599-0.171-1.197-0.255-1.795-0.255-2.455 0-4.505 0.96-6.151 2.883-0.405 0.492-0.736 0.981-0.992 1.473l-0.481-0.096c-0.492-0.171-0.951-0.255-1.377-0.255-1.389 0-2.573 0.491-3.556 1.472-0.984 0.981-1.464 2.156-1.443 3.523zM3.813 5.224c-0.236-0.235-0.353-0.469-0.353-0.705 0-0.235 0.117-0.469 0.353-0.704 0.235-0.236 0.469-0.353 0.704-0.353s0.48 0.117 0.736 0.353l1.377 1.409c0.235 0.235 0.353 0.469 0.353 0.705 0 0.235-0.119 0.459-0.353 0.672-0.235 0.215-0.469 0.332-0.704 0.352l-0.673-0.352-1.44-1.377zM8.008 13.008c0 0.789 0.203 1.559 0.609 2.305 1.964-2.221 4.431-3.332 7.399-3.332 0.577 0 1.219 0.065 1.923 0.193-0.193-1.196-0.748-2.197-1.667-3.011-0.919-0.812-2.009-1.207-3.268-1.187-1.367 0-2.541 0.492-3.525 1.475-0.979 0.984-1.471 2.168-1.471 3.556zM12.013 2.983v-1.985c0-0.299 0.096-0.545 0.287-0.736 0.193-0.195 0.428-0.279 0.705-0.259 0.277 0.021 0.523 0.107 0.736 0.257 0.213 0.148 0.299 0.395 0.256 0.736v1.985c0 0.299-0.085 0.544-0.256 0.736-0.169 0.193-0.415 0.28-0.736 0.256-0.32-0.020-0.556-0.105-0.705-0.256-0.149-0.148-0.244-0.393-0.287-0.735zM19.379 6.601c-0.235-0.213-0.352-0.437-0.352-0.672 0-0.236 0.117-0.471 0.352-0.705l1.379-1.409c0.256-0.236 0.501-0.353 0.736-0.353 0.236 0 0.471 0.117 0.705 0.353 0.235 0.235 0.353 0.469 0.353 0.704 0 0.236-0.119 0.471-0.353 0.705l-1.441 1.377c-0.235 0.235-0.459 0.352-0.672 0.352l-0.707-0.352zM22.007 13.008c0-0.299 0.095-0.545 0.288-0.737 0.192-0.193 0.427-0.289 0.705-0.289h2.017c0.299 0 0.533 0.096 0.705 0.289 0.168 0.192 0.265 0.439 0.288 0.737 0.021 0.299-0.075 0.533-0.288 0.704-0.215 0.171-0.449 0.268-0.705 0.288h-2.017c-0.279 0-0.515-0.097-0.705-0.288-0.192-0.192-0.288-0.427-0.288-0.704z"></path>
</symbol>
<symbol id="icon-cross-13x13" viewBox="0 0 32 32">
<title>cross-13x13</title>
<path class="cross_path" d="M32 2.513l-2.513-2.513-13.487 13.487-13.487-13.487-2.513 2.513 13.487 13.487-13.487 13.487 2.513 2.513 13.487-13.487 13.487 13.487 2.513-2.513-13.487-13.487z"></path>
</symbol>


<symbol id="icon-faceless" viewBox="0 0 29 32">
<title>faceless</title>
<path class="path1" d="M29.111 26.592c0 1.666-0.507 2.983-1.519 3.953s-2.347 1.455-4 1.455h-18.073c-1.655 0-2.988-0.486-4-1.455-1.013-0.97-1.519-2.287-1.519-3.953 0-0.747 0.024-1.468 0.074-2.163 0.050-0.696 0.148-1.455 0.297-2.276 0.148-0.82 0.333-1.566 0.555-2.237 0.223-0.671 0.518-1.355 0.889-2.052 0.371-0.695 0.79-1.255 1.26-1.678 0.468-0.422 1.061-0.795 1.777-1.118s1.481-0.46 2.297-0.41c0.124 0 0.42 0.149 0.889 0.448 0.469 0.297 0.975 0.633 1.519 1.006 0.542 0.373 1.283 0.708 2.221 1.008 0.939 0.297 1.864 0.448 2.778 0.448s1.828-0.15 2.741-0.448c0.913-0.299 1.667-0.634 2.259-1.008s1.099-0.709 1.519-1.006c0.419-0.299 0.716-0.448 0.889-0.448 0.838 0 1.604 0.137 2.295 0.41s1.284 0.646 1.778 1.118c0.493 0.473 0.913 1.032 1.26 1.678 0.345 0.647 0.64 1.331 0.888 2.052s0.433 1.467 0.556 2.237c0.124 0.771 0.222 1.53 0.297 2.276 0.074 0.745 0.098 1.466 0.074 2.163zM22.482 8.019c0 2.188-0.778 4.065-2.334 5.631-1.555 1.566-3.42 2.349-5.593 2.349s-4.049-0.783-5.629-2.349c-1.581-1.566-2.347-3.443-2.297-5.631 0.050-2.187 0.815-4.077 2.297-5.668 1.481-1.592 3.358-2.375 5.629-2.351 2.273 0.026 4.135 0.809 5.593 2.351s2.235 3.431 2.334 5.668z"></path>
</symbol>
<symbol id="fb" viewBox="0 0 17 32">
<title>fb-11x21</title>
<path class="path1" fill="#fff" d="M16.762 0.241v5.064h-3.025c-1.112 0-1.867 0.229-2.26 0.689-0.396 0.46-0.591 1.149-0.591 2.068v3.651h5.702l-0.763 5.682h-4.939v14.606h-5.947v-14.606h-4.939v-5.682h4.939v-4.203c0-2.388 0.67-4.238 2.018-5.547 1.344-1.307 3.141-1.963 5.39-1.963 1.9 0 3.372 0.081 4.416 0.241z"></path>
</symbol>
<symbol id="icon-idea" viewBox="0 0 27 32">
<title>idea</title>
<path class="path1" d="M4.704 14.379c0-2.56 0.901-4.736 2.704-6.525 1.802-1.791 3.97-2.694 6.505-2.713 2.534-0.017 4.702 0.887 6.505 2.713 1.802 1.826 2.703 4 2.703 6.525 0 0.966-0.266 2.049-0.802 3.248s-1.169 2.453-1.901 3.76c-0.733 1.306-1.231 2.345-1.499 3.115-0.267 0.698-0.545 1.539-0.831 2.523l-0.642 2.201c-0.143 0.482-0.383 0.957-0.722 1.424-0.339 0.464-0.714 0.814-1.126 1.047s-0.973 0.331-1.686 0.295c-0.714-0.035-1.286-0.134-1.714-0.295-0.426-0.161-0.793-0.51-1.095-1.047-0.304-0.537-0.536-1.011-0.696-1.424-0.161-0.411-0.384-1.146-0.67-2.201-0.286-1.057-0.571-1.898-0.856-2.523-0.232-0.77-0.723-1.817-1.473-3.143-0.75-1.325-1.392-2.569-1.927-3.733-0.536-1.163-0.794-2.246-0.777-3.248zM6.391 14.379c0 1.145 0.731 3.051 2.195 5.718 0.659 1.146 1.123 2.032 1.391 2.659h7.843c0.286-0.626 0.759-1.513 1.419-2.659 1.463-2.702 2.194-4.608 2.194-5.718 0-2.095-0.733-3.875-2.194-5.344-1.464-1.467-3.239-2.201-5.328-2.201s-3.863 0.735-5.326 2.201c-1.464 1.469-2.195 3.25-2.195 5.344zM8.881 14.379c0-1.395 0.49-2.587 1.473-3.571 0.981-0.985 2.167-1.477 3.56-1.477 0.267 0 0.402 0.144 0.402 0.429 0 0.288-0.134 0.43-0.402 0.43-1.16 0-2.15 0.403-2.971 1.209s-1.222 1.799-1.205 2.981c0 0.267-0.143 0.402-0.429 0.402-0.287 0-0.429-0.135-0.429-0.402zM10.673 24.449c0.197 0.59 0.366 1.128 0.509 1.61l5.703-0.725c0.035-0.215 0.125-0.51 0.267-0.886h-6.479zM11.45 26.864c0.178 0.626 0.338 1.163 0.482 1.611l4.121-0.511c0.107-0.286 0.215-0.625 0.321-1.021 0.035-0.089 0.071-0.224 0.106-0.403 0.037-0.178 0.064-0.285 0.081-0.321l-5.112 0.645zM12.226 29.255c0.214 0.465 0.437 0.76 0.669 0.886 0.232 0.123 0.57 0.187 1.017 0.187 0.518 0 0.901-0.090 1.151-0.269 0.249-0.179 0.49-0.582 0.722-1.208l-3.559 0.403z"></path>
<path class="path2" d="M1.247 7.566c-0.085 0.199-0.072 0.414 0.043 0.642 0.112 0.229 0.269 0.401 0.469 0.513l2.175 0.898c0.285 0.115 0.542 0.143 0.768 0.087 0.227-0.058 0.357-0.199 0.384-0.429 0.112-0.199 0.112-0.4 0-0.599-0.114-0.199-0.271-0.357-0.469-0.471l-2.176-0.984c-0.113-0.057-0.255-0.085-0.425-0.085h-0.257c-0.255 0.112-0.426 0.255-0.512 0.426zM0 13.441c0 0.235 0.069 0.44 0.199 0.619 0.133 0.181 0.321 0.301 0.571 0.361l2.464 0.166c0.262 0.008 0.482-0.056 0.662-0.189 0.178-0.134 0.291-0.296 0.339-0.49-0.002-0.235-0.094-0.463-0.272-0.683-0.071-0.075-0.217-0.143-0.435-0.197l-0.166-0.041-2.465-0.166c-0.219-0.055-0.419-0.015-0.598 0.117-0.181 0.135-0.28 0.301-0.299 0.503zM5.966 2.655c-0.034 0.232 0.047 0.453 0.24 0.663l1.522 1.863c0.134 0.186 0.333 0.31 0.595 0.368 0.264 0.058 0.472-0.007 0.623-0.194 0.162-0.103 0.245-0.269 0.25-0.499 0.003-0.23-0.062-0.451-0.199-0.67l-1.574-1.943c-0.138-0.215-0.306-0.325-0.506-0.334l-0.256 0.027c-0.169 0.017-0.31 0.047-0.421 0.087-0.15 0.187-0.243 0.4-0.275 0.632zM13.003 3.382c0 0.198 0.070 0.399 0.214 0.599 0.141 0.199 0.341 0.298 0.598 0.298 0.255 0 0.453-0.099 0.597-0.298 0.141-0.2 0.214-0.401 0.214-0.599v-2.44c0-0.285-0.073-0.513-0.214-0.683-0.145-0.173-0.328-0.258-0.555-0.258h-0.085c-0.227 0-0.414 0.086-0.554 0.258-0.143 0.17-0.214 0.399-0.214 0.683v2.44zM19.105 4.865c-0.015 0.229 0.062 0.39 0.226 0.485 0.158 0.182 0.368 0.238 0.631 0.169 0.261-0.067 0.453-0.197 0.579-0.391l1.45-1.921c0.315-0.496 0.286-0.927-0.090-1.294-0.111-0.035-0.253-0.058-0.424-0.071l-0.256-0.014c-0.198 0.017-0.363 0.135-0.491 0.354l-1.496 2.005c-0.099 0.224-0.141 0.448-0.129 0.678zM23.249 12.835c0.070 0.187 0.198 0.335 0.392 0.45 0.191 0.11 0.418 0.15 0.678 0.114l2.431-0.432c0.213-0.079 0.389-0.218 0.529-0.422 0.136-0.202 0.179-0.415 0.128-0.638-0.050-0.225-0.167-0.379-0.351-0.466-0.182-0.083-0.383-0.102-0.608-0.049l-2.431 0.433-0.241 0.088c-0.16 0.057-0.27 0.133-0.33 0.213-0.154 0.239-0.219 0.474-0.197 0.709zM22.874 8.667c0.079 0.222 0.219 0.35 0.423 0.387 0.205 0.038 0.455-0.015 0.757-0.162l2.078-1.106c0.215-0.134 0.354-0.321 0.416-0.557 0.063-0.237 0.056-0.45-0.019-0.643-0.077-0.192-0.262-0.317-0.551-0.374l-0.255 0.025c-0.17 0.017-0.31 0.058-0.416 0.127l-2.070 1.191c-0.186 0.134-0.328 0.306-0.421 0.514-0.096 0.211-0.077 0.411 0.058 0.598z"></path>
</symbol>
<symbol id="instagram" viewBox="0 0 32 32">
<title>instagram</title>
<path class="path1" fill="#fff" d="M31.999 4.104v23.793c0 1.119-0.4 2.076-1.196 2.871-0.796 0.797-1.767 1.207-2.913 1.232h-23.782c-1.12 0-2.091-0.411-2.913-1.232-0.82-0.82-1.219-1.777-1.194-2.871v-23.793c0-1.121 0.398-2.076 1.194-2.873 0.798-0.795 1.769-1.205 2.913-1.231h23.783c1.121 0 2.092 0.412 2.913 1.231 0.821 0.821 1.219 1.778 1.195 2.873zM28.377 27.040v-13.502h-2.8c0.273 0.871 0.41 1.778 0.41 2.723 0 1.767-0.447 3.382-1.345 4.849-0.896 1.467-2.104 2.636-3.621 3.505-1.518 0.871-3.186 1.306-5.003 1.306-2.738 0-5.077-0.945-7.019-2.834-1.941-1.89-2.912-4.164-2.912-6.826 0-0.944 0.136-1.852 0.41-2.723h-2.949v13.502c0 0.349 0.125 0.646 0.373 0.895s0.561 0.372 0.934 0.372h22.252c0.348 0 0.648-0.124 0.896-0.372s0.374-0.546 0.374-0.895zM22.478 15.925c0-1.715-0.635-3.182-1.905-4.4-1.268-1.217-2.788-1.827-4.555-1.827s-3.274 0.61-4.517 1.827c-1.245 1.219-1.88 2.686-1.904 4.4-0.024 1.717 0.609 3.185 1.904 4.401 1.293 1.219 2.801 1.828 4.517 1.828 1.793 0 3.311-0.609 4.555-1.828 1.244-1.217 1.879-2.684 1.905-4.401zM28.377 8.429v-3.431c0-0.372-0.138-0.707-0.412-1.006s-0.609-0.435-1.007-0.409h-3.661c-0.397 0-0.734 0.137-1.006 0.409-0.275 0.273-0.411 0.61-0.411 1.006v3.431c0 0.424 0.136 0.772 0.411 1.045 0.272 0.273 0.609 0.41 1.006 0.41h3.661c0.398 0 0.734-0.137 1.007-0.41 0.275-0.273 0.412-0.621 0.412-1.045z"></path>
</symbol>
<symbol id="icon-phone" viewBox="0 0 32 32">
<title>phone</title>
<path class="path1" d="M32 25.283c0 0.403-0.077 0.933-0.245 1.584-0.163 0.656-0.325 1.168-0.491 1.549-0.299 0.757-1.219 1.576-2.765 2.443-1.411 0.76-2.808 1.141-4.189 1.141-0.437 0-0.84-0.027-1.221-0.083-0.384-0.053-0.816-0.147-1.301-0.283-0.491-0.133-0.84-0.245-1.059-0.325l-2.4-0.853c-1.467-0.544-2.781-1.181-3.949-1.917-1.955-1.195-3.963-2.824-6.024-4.885-2.064-2.059-3.691-4.072-4.885-6.027-0.731-1.165-1.357-2.48-1.872-3.949l-0.405-1.139c-0.219-0.624-0.381-1.043-0.488-1.261-0.109-0.219-0.219-0.568-0.328-1.059l-0.285-1.304c-0.080-0.379-0.107-0.773-0.080-1.179 0-1.411 0.392-2.821 1.181-4.235 0.84-1.547 1.64-2.469 2.4-2.768 0.379-0.165 0.893-0.328 1.547-0.488 0.651-0.163 1.181-0.245 1.587-0.245 0.219 0 0.381 0.029 0.491 0.083 0.272 0.083 0.677 0.667 1.221 1.749 0.165 0.272 0.379 0.677 0.651 1.221s0.544 1.019 0.816 1.427c0.272 0.408 0.501 0.816 0.691 1.221 0.053 0.056 0.189 0.243 0.408 0.568 0.216 0.328 0.379 0.597 0.488 0.816s0.165 0.435 0.165 0.651c0 0.299-0.219 0.677-0.651 1.139-0.44 0.464-0.915 0.869-1.432 1.221-0.515 0.352-0.973 0.76-1.381 1.221s-0.624 0.8-0.651 1.019c0 0.136 0.040 0.312 0.12 0.528l0.165 0.448c0.027 0.083 0.133 0.272 0.325 0.571s0.285 0.435 0.285 0.405c1.139 2.091 2.456 3.885 3.947 5.376 1.493 1.493 3.269 2.811 5.333 3.949 0.027 0 0.163 0.077 0.405 0.245 0.245 0.16 0.432 0.272 0.571 0.325l0.448 0.2c0.163 0.083 0.339 0.109 0.525 0.083 0.272 0 0.611-0.205 1.021-0.611 0.403-0.411 0.813-0.88 1.219-1.424 0.408-0.541 0.827-1.019 1.261-1.421 0.432-0.411 0.813-0.627 1.141-0.659 0.184 0 0.389 0.056 0.611 0.168 0.216 0.107 0.485 0.272 0.813 0.491 0.325 0.216 0.515 0.352 0.571 0.403l2.643 1.507c0.515 0.296 0.939 0.525 1.261 0.693 1.056 0.515 1.627 0.907 1.715 1.179 0.051 0.112 0.077 0.272 0.077 0.491z"></path>
</symbol>
<symbol id="icon-reset-18x18" viewBox="0 0 32 32">
<title>reset-18x18</title>
<path class="path1" fill="#8aaa4b" stroke="#8aaa4b" stroke-width="1.7778" stroke-miterlimit="4" stroke-linecap="butt" stroke-linejoin="miter" d="M27.166 6.588l-1.755-1.755-9.412 9.412-9.412-9.412-1.755 1.755 9.412 9.412-9.412 9.412 1.755 1.756 9.412-9.413 9.412 9.413 1.755-1.756-9.412-9.412z"></path>
<path class="path2" fill="none" stroke="#8aaa4b" stroke-width="3.5556" stroke-miterlimit="4" stroke-linecap="butt" stroke-linejoin="miter" d="M30.222 16c0 7.855-6.367 14.222-14.222 14.222s-14.222-6.367-14.222-14.222c0-7.855 6.367-14.222 14.222-14.222s14.222 6.367 14.222 14.222z"></path>
</symbol>
<symbol id="icon-trip" viewBox="0 0 41 32">
<title>trip</title>
<path class="path1" d="M35.879 18.424v0h-9.212c-1.648 0-2.909-1.261-2.909-2.909s1.261-2.909 2.909-2.909h3.394v-1.939h-3.879v0.097c-2.424 0.291-4.364 2.327-4.364 4.752s1.939 4.558 4.364 4.752v0.097h9.212c2.133 0 3.879 1.745 3.879 3.879s-1.745 3.879-3.879 3.879h-21.818v1.939h22.303c3.006-0.291 5.333-2.715 5.333-5.818s-2.327-5.527-5.333-5.818z"></path>
<path class="path2" d="M31.224 14.351c0.388 0.388 0.97 0.388 1.358 0l1.358-1.358 1.358 1.358c0.388 0.388 0.97 0.388 1.358 0s0.388-0.97 0-1.358l-1.358-1.358 1.358-1.358c0.388-0.388 0.388-0.97 0-1.358s-0.97-0.388-1.358 0l-1.358 1.358-1.358-1.358c-0.388-0.388-0.97-0.388-1.358 0s-0.388 0.97 0 1.358l1.358 1.358-1.358 1.358c-0.388 0.388-0.388 0.97 0 1.358z"></path>
<path class="path3" d="M8.727 26.182c-1.649 0-2.909 1.261-2.909 2.909s1.261 2.909 2.909 2.909c1.649 0 2.909-1.261 2.909-2.909s-1.261-2.909-2.909-2.909zM8.727 30.061c-0.582 0-0.97-0.388-0.97-0.97s0.388-0.97 0.97-0.97 0.97 0.388 0.97 0.97-0.388 0.97-0.97 0.97z"></path>
<path class="path4" d="M12.606 8.727c0-2.133-1.745-3.879-3.879-3.879s-3.879 1.745-3.879 3.879c0 2.133 1.745 3.879 3.879 3.879s3.879-1.745 3.879-3.879zM6.788 8.727c0-1.067 0.873-1.939 1.939-1.939s1.939 0.873 1.939 1.939c0 1.067-0.873 1.939-1.939 1.939s-1.939-0.873-1.939-1.939z"></path>
<path class="path5" d="M17.455 8.63c0-4.848-3.782-8.63-8.727-8.63s-8.727 3.782-8.727 8.63 8.727 15.612 8.727 15.612 8.727-10.764 8.727-15.612zM8.727 1.939c3.879 0 6.788 2.909 6.788 6.691 0 1.455-1.842 6.012-6.788 12.509-4.945-6.497-6.788-11.055-6.788-12.509 0-3.782 2.909-6.691 6.788-6.691z"></path>
</symbol>
<symbol id="icon-turn" viewBox="0 0 28 32">
<title>turn</title>
<path class="path1" d="M26.355 19.887c-0.611-0.147-1.223 0.239-1.368 0.862-1.448 6.237-7.579 10.097-13.681 8.616-6.109-1.482-9.888-7.734-8.44-13.976 1.453-6.237 7.576-10.093 13.684-8.615l0.522-2.255c-7.328-1.775-14.681 2.851-16.418 10.334-1.74 7.485 2.796 14.993 10.129 16.766 7.325 1.772 14.676-2.851 16.418-10.338 0.141-0.623-0.234-1.251-0.847-1.396zM23.446 7.254l-5.32-7.254-2.622 11.294 7.943-4.040z"></path>
</symbol>
</defs>
</svg>
