<?xml version="1.0" encoding="utf-8"?>
<!-- Generator: Adobe Illustrator 19.0.0, SVG Export Plug-In . SVG Version: 6.00 Build 0)  -->
<?xml-stylesheet type="text/css" href="styles.css"?>
<svg version="1.1" id="Layer_1" xmlns="http://www.w3.org/2000/svg" xmlns:xlink="http://www.w3.org/1999/xlink" x="0px" y="0px"
	 width="42.5px" height="33px" viewBox="0 0 42.5 33" enable-background="new 0 0 42.5 33" xml:space="preserve">
<g>
	<path class="svg-trip" d="M37,19L37,19l-9.5,0c-1.7,0-3-1.3-3-3s1.3-3,3-3H31v-2h-4v0.1c-2.5,0.3-4.5,2.4-4.5,4.9s2,4.7,4.5,4.9V21
		h9.5c2.2,0,4,1.8,4,4s-1.8,4-4,4H14v2h23v0c3.1-0.3,5.5-2.8,5.5-6S40.1,19.3,37,19z"/>
	<path class="svg-trip" d="M32.2,14.8c0.4,0.4,1,0.4,1.4,0l1.4-1.4l1.4,1.4c0.4,0.4,1,0.4,1.4,0c0.4-0.4,0.4-1,0-1.4L36.4,12l1.4-1.4
		c0.4-0.4,0.4-1,0-1.4c-0.4-0.4-1-0.4-1.4,0L35,10.6l-1.4-1.4c-0.4-0.4-1-0.4-1.4,0c-0.4,0.4-0.4,1,0,1.4l1.4,1.4l-1.4,1.4
		C31.8,13.8,31.8,14.4,32.2,14.8z"/>
	<path class="svg-trip" d="M9,27c-1.7,0-3,1.3-3,3s1.3,3,3,3c1.7,0,3-1.3,3-3S10.7,27,9,27z M9,31c-0.6,0-1-0.4-1-1s0.4-1,1-1
		s1,0.4,1,1S9.6,31,9,31z"/>
	<path class="svg-trip" d="M13,9c0-2.2-1.8-4-4-4S5,6.8,5,9c0,2.2,1.8,4,4,4S13,11.2,13,9z M7,9c0-1.1,0.9-2,2-2s2,0.9,2,2
		c0,1.1-0.9,2-2,2S7,10.1,7,9z"/>
	<path class="svg-trip" d="M18,8.9c0-5-3.9-8.9-9-8.9S0,3.9,0,8.9S9,25,9,25S18,13.9,18,8.9z M9,2c4,0,7,3,7,6.9c0,1.5-1.9,6.2-7,12.9
		C3.9,15.1,2,10.4,2,8.9C2,5,5,2,9,2z"/>
</g>
</svg>
