<?xml version="1.0" encoding="utf-8"?>
<!-- Generator: Adobe Illustrator 14.0.0, SVG Export Plug-In . SVG Version: 6.00 Build 43363)  -->
<!DOCTYPE svg PUBLIC "-//W3C//DTD SVG 1.1//EN" "http://www.w3.org/Graphics/SVG/1.1/DTD/svg11.dtd">
<?xml-stylesheet type="text/css" href="styles.css"?>
<svg version="1.1" id="Layer_1" xmlns="http://www.w3.org/2000/svg" xmlns:xlink="http://www.w3.org/1999/xlink" x="0px" y="0px"
	 width="16.337px" height="19px" viewBox="0 0 16.337 19" enable-background="new 0 0 16.337 19" xml:space="preserve" class="svg-turn">
<g id="Shape_1">
	<g>
		<path class="svg-turn__path" d="M15.648,11.808c-0.363-0.087-0.726,0.142-0.812,0.512c-0.86,3.703-4.5,5.995-8.123,5.116
			c-3.627-0.88-5.871-4.592-5.011-8.298C2.565,5.435,6.2,3.145,9.827,4.023l0.31-1.339C5.786,1.63,1.42,4.377,0.389,8.82
			c-1.033,4.444,1.66,8.902,6.014,9.955c4.349,1.052,8.714-1.693,9.748-6.138C16.235,12.267,16.012,11.894,15.648,11.808z
			 M13.921,4.307L10.762,0L9.205,6.706L13.921,4.307z"/>
	</g>
</g>
</svg>
