<?xml version="1.0" encoding="utf-8"?>
<!-- Generator: Adobe Illustrator 14.0.0, SVG Export Plug-In . SVG Version: 6.00 Build 43363)  -->
<!DOCTYPE svg PUBLIC "-//W3C//DTD SVG 1.1//EN" "http://www.w3.org/Graphics/SVG/1.1/DTD/svg11.dtd">
<svg version="1.1" id="Layer_1" xmlns="http://www.w3.org/2000/svg" xmlns:xlink="http://www.w3.org/1999/xlink" x="0px" y="0px"
	 width="25px" height="14px" viewBox="0 0 25 14" enable-background="new 0 0 25 14" xml:space="preserve">
<g>
	<path fill="#FFFFFF" d="M24.964,1.008c0.203,0.55-0.451,1.801-1.958,3.754c-0.202,0.275-0.482,0.641-0.839,1.099
		c-0.684,0.839-1.072,1.396-1.166,1.671c-0.156,0.351-0.101,0.694,0.163,1.03c0.156,0.183,0.513,0.534,1.072,1.053h0.024v0.023
		l0.023,0.022c1.227,1.114,2.059,2.053,2.494,2.816l0.093,0.16c0.031,0.061,0.054,0.176,0.07,0.343c0.016,0.168,0.016,0.313,0,0.435
		s-0.125,0.237-0.326,0.343c-0.202,0.107-0.459,0.16-0.769,0.16l-3.333,0.069c-0.203,0.031-0.443,0.008-0.723-0.069
		c-0.279-0.076-0.505-0.175-0.675-0.297l-0.257-0.138c-0.264-0.182-0.567-0.457-0.909-0.823c-0.343-0.367-0.637-0.695-0.886-0.984
		c-0.248-0.29-0.513-0.542-0.792-0.755c-0.279-0.213-0.528-0.274-0.746-0.184c-0.015,0-0.046,0.016-0.093,0.046
		c-0.047,0.031-0.125,0.092-0.233,0.184c-0.109,0.091-0.202,0.214-0.28,0.366c-0.078,0.153-0.148,0.375-0.209,0.664
		c-0.063,0.29-0.093,0.626-0.093,1.007c0,0.123-0.016,0.237-0.047,0.344s-0.062,0.184-0.093,0.229l-0.047,0.068
		c-0.155,0.168-0.389,0.26-0.699,0.274h-1.492c-0.622,0.046-1.251-0.022-1.888-0.206c-0.638-0.183-1.212-0.404-1.725-0.664
		c-0.513-0.259-0.956-0.542-1.329-0.847c-0.374-0.305-0.684-0.55-0.932-0.732l-0.327-0.321c-0.078-0.076-0.194-0.207-0.35-0.389
		c-0.155-0.184-0.467-0.564-0.933-1.145C4.289,9.036,3.831,8.387,3.38,7.669C2.93,6.952,2.401,6.06,1.795,4.992
		C1.189,3.924,0.622,2.764,0.093,1.512C0.031,1.375,0,1.261,0,1.168c0-0.091,0.016-0.16,0.047-0.206l0.046-0.068
		c0.14-0.168,0.388-0.252,0.746-0.252L4.405,0.62c0.109,0.015,0.209,0.045,0.303,0.091c0.093,0.045,0.163,0.076,0.21,0.091
		l0.07,0.045C5.128,0.94,5.229,1.077,5.291,1.261c0.17,0.428,0.373,0.87,0.606,1.327l0.536,1.03l0.21,0.366
		c0.248,0.52,0.489,0.962,0.722,1.328c0.233,0.366,0.443,0.655,0.63,0.87C8.182,6.396,8.36,6.563,8.531,6.685
		c0.17,0.123,0.318,0.184,0.443,0.184c0.124,0,0.241-0.023,0.35-0.069l0.07-0.069c0.03-0.029,0.084-0.122,0.163-0.273
		C9.634,6.304,9.689,6.106,9.72,5.862l0.116-1.053c0.047-0.458,0.047-0.985,0-1.58C9.821,2.878,9.782,2.565,9.72,2.291
		C9.658,2.016,9.604,1.818,9.557,1.696L9.463,1.558c-0.217-0.29-0.583-0.472-1.096-0.55c-0.124-0.03-0.101-0.137,0.07-0.32
		C8.577,0.536,8.74,0.406,8.927,0.3c0.451-0.214,1.483-0.313,3.101-0.298c0.714,0.016,1.296,0.069,1.748,0.16
		c0.186,0.046,0.333,0.107,0.443,0.184c0.108,0.077,0.202,0.175,0.28,0.297c0.077,0.123,0.116,0.26,0.116,0.412
		c0,0.153,0.016,0.352,0.047,0.595c0.03,0.244,0.03,0.473,0,0.687c-0.031,0.213-0.047,0.519-0.047,0.916v1.053l-0.024,0.527
		c-0.016,0.259-0.016,0.466,0,0.618l0.047,0.504c0.015,0.183,0.062,0.351,0.14,0.504c0.077,0.152,0.179,0.259,0.303,0.32
		l0.209,0.045c0.078,0.015,0.194-0.031,0.35-0.138c0.156-0.106,0.319-0.251,0.489-0.435c0.171-0.183,0.397-0.472,0.676-0.87
		c0.28-0.396,0.575-0.854,0.886-1.373c0.512-0.885,0.979-1.838,1.397-2.861c0.031-0.092,0.071-0.168,0.117-0.229
		c0.046-0.061,0.093-0.106,0.14-0.137l0.046-0.046l0.256-0.069c0.124-0.031,0.209-0.031,0.256,0l3.729-0.023
		c0.342-0.046,0.622-0.038,0.839,0.023s0.35,0.137,0.396,0.229L24.964,1.008z"/>
</g>
</svg>
