<?xml version="1.0" encoding="utf-8"?>
<!-- Generator: Adobe Illustrator 14.0.0, SVG Export Plug-In . SVG Version: 6.00 Build 43363)  -->
<!DOCTYPE svg PUBLIC "-//W3C//DTD SVG 1.1//EN" "http://www.w3.org/Graphics/SVG/1.1/DTD/svg11.dtd">
<?xml-stylesheet type="text/css" href="styles.css"?>
<svg version="1.1" id="Layer_1" xmlns="http://www.w3.org/2000/svg" xmlns:xlink="http://www.w3.org/1999/xlink" x="0px" y="0px"
	 width="24px" height="24px" viewBox="0 0 24 24" enable-background="new 0 0 24 24" xml:space="preserve">
<g>
	<path class="svg-weather" d="M0,17.251c0-1.41,0.497-2.619,1.49-3.627c0.992-1.01,2.186-1.554,3.58-1.635
		c-0.385-0.721-0.576-1.465-0.576-2.233c0-1.442,0.52-2.682,1.561-3.723c1.041-1.041,2.273-1.559,3.7-1.55
		c1.425,0.009,2.646,0.509,3.664,1.501c1.017,0.994,1.549,2.219,1.598,3.676c1.201,0.512,2.203,1.305,3.003,2.378
		c0.208-0.032,0.457-0.049,0.745-0.049c1.441,0,2.675,0.521,3.7,1.562c1.025,1.041,1.537,2.273,1.537,3.7
		c0,1.425-0.512,2.658-1.537,3.699c-1.025,1.042-2.259,1.562-3.7,1.562c-0.672,0-1.297-0.112-1.874-0.336
		C15.48,23.393,13.854,24,12.012,24c-1.841,0-3.467-0.607-4.876-1.824c-0.592,0.224-1.217,0.336-1.874,0.336
		c-1.441,0-2.683-0.521-3.724-1.562C0.497,19.909-0.015,18.676,0,17.251z M0,9.756c0-0.224,0.072-0.409,0.216-0.553
		c0.145-0.145,0.321-0.217,0.529-0.217h1.513c0.208,0,0.385,0.072,0.529,0.217c0.144,0.144,0.216,0.329,0.216,0.553
		c0,0.224-0.072,0.4-0.216,0.528c-0.145,0.128-0.321,0.201-0.529,0.216H0.746c-0.208,0-0.385-0.073-0.529-0.216
		C0.073,10.14,0,9.964,0,9.756z M1.514,17.251c0,1.024,0.361,1.905,1.081,2.642c0.72,0.736,1.61,1.105,2.667,1.105
		c0.77,0,1.481-0.232,2.138-0.696c1.233,1.473,2.771,2.21,4.613,2.21c1.842,0,3.372-0.737,4.589-2.21
		c0.657,0.464,1.377,0.696,2.162,0.696c1.024,0,1.905-0.369,2.643-1.105c0.737-0.737,1.105-1.618,1.105-2.642
		c0-1.025-0.369-1.906-1.105-2.643c-0.737-0.737-1.618-1.104-2.643-1.104c-0.496,0-0.97,0.088-1.417,0.264
		c-0.592-1.121-1.45-1.978-2.57-2.571c-0.449-0.255-0.921-0.424-1.417-0.505c-0.449-0.128-0.898-0.191-1.346-0.191
		c-1.841,0-3.379,0.72-4.613,2.162c-0.304,0.369-0.552,0.736-0.744,1.105l-0.361-0.072c-0.369-0.128-0.713-0.191-1.033-0.191
		c-1.042,0-1.93,0.368-2.667,1.104C1.858,15.345,1.498,16.226,1.514,17.251z M2.86,3.918C2.683,3.742,2.595,3.566,2.595,3.389
		c0-0.176,0.088-0.352,0.265-0.528c0.176-0.177,0.352-0.265,0.528-0.265s0.36,0.088,0.552,0.265l1.033,1.057
		C5.149,4.094,5.238,4.27,5.238,4.447c0,0.176-0.089,0.344-0.265,0.504C4.797,5.112,4.621,5.2,4.445,5.215L3.94,4.951L2.86,3.918z
		 M6.006,9.756c0,0.592,0.152,1.169,0.457,1.729c1.473-1.666,3.323-2.499,5.549-2.499c0.433,0,0.914,0.049,1.442,0.145
		c-0.145-0.897-0.561-1.648-1.25-2.258c-0.689-0.609-1.507-0.905-2.451-0.89c-1.025,0-1.906,0.369-2.644,1.106
		C6.375,7.827,6.006,8.715,6.006,9.756z M9.01,2.237V0.748c0-0.224,0.072-0.409,0.215-0.552C9.37,0.05,9.546-0.013,9.754,0.002
		c0.208,0.016,0.392,0.08,0.552,0.193c0.16,0.111,0.224,0.296,0.192,0.552v1.489c0,0.224-0.064,0.408-0.192,0.552
		C10.179,2.933,9.995,2.998,9.754,2.98c-0.24-0.015-0.417-0.079-0.529-0.192C9.113,2.677,9.042,2.493,9.01,2.237z M14.534,4.951
		c-0.176-0.16-0.264-0.328-0.264-0.504c0-0.177,0.088-0.353,0.264-0.529l1.034-1.057c0.192-0.177,0.376-0.265,0.552-0.265
		c0.177,0,0.353,0.088,0.529,0.265c0.176,0.176,0.265,0.352,0.265,0.528c0,0.177-0.089,0.353-0.265,0.529l-1.081,1.033
		c-0.176,0.176-0.344,0.264-0.504,0.264L14.534,4.951z M16.505,9.756c0-0.224,0.071-0.409,0.216-0.553
		c0.144-0.145,0.32-0.217,0.529-0.217h1.513c0.224,0,0.4,0.072,0.529,0.217c0.126,0.144,0.199,0.329,0.216,0.553
		c0.016,0.224-0.056,0.4-0.216,0.528c-0.161,0.128-0.337,0.201-0.529,0.216H17.25c-0.209,0-0.386-0.073-0.529-0.216
		C16.577,10.14,16.505,9.964,16.505,9.756z"/>
</g>
</svg>
